<svg width="74" height="40" viewBox="0 0 74 40" fill="none" xmlns="http://www.w3.org/2000/svg">
<g filter="url(#filter0_f_167_2788)">
<ellipse cx="37" cy="20" rx="35" ry="18" fill="#5F9973"/>
</g>
<g filter="url(#filter1_f_167_2788)">
<path d="M17.1921 13.656V13.04H23.8361C25.3761 13.04 26.5641 13.3847 27.4001 14.074C28.2361 14.7633 28.6541 15.6873 28.6541 16.846V17.352C28.6541 18.232 28.4121 18.98 27.9281 19.596C27.4441 20.212 26.7474 20.652 25.8381 20.916L28.5881 26.152C28.7641 26.4747 28.8961 26.7093 28.9841 26.856C29.0721 27.0027 29.1528 27.098 29.2261 27.142C29.3141 27.1713 29.4314 27.2007 29.5781 27.23L30.5681 27.384V28H26.4541L23.1321 21.18H21.5261V26.152C21.5261 26.6507 21.5481 26.9513 21.5921 27.054C21.6361 27.142 21.7754 27.2007 22.0101 27.23L23.2201 27.384V28H17.1921V27.384L18.4021 27.23C18.6368 27.2007 18.7761 27.142 18.8201 27.054C18.8641 26.9513 18.8861 26.6507 18.8861 26.152V14.888C18.8861 14.3893 18.8641 14.096 18.8201 14.008C18.7761 13.9053 18.6368 13.8393 18.4021 13.81L17.1921 13.656ZM23.8361 13.81H21.5261V20.41H23.8361C24.4814 20.41 24.9728 20.212 25.3101 19.816C25.6621 19.4053 25.8381 18.6573 25.8381 17.572V16.626C25.8381 15.5407 25.6621 14.8 25.3101 14.404C24.9728 14.008 24.4814 13.81 23.8361 13.81ZM40.5033 13.656V13.04H44.7713V13.656L43.5613 13.81C43.3267 13.8393 43.1873 13.9053 43.1433 14.008C43.0993 14.096 43.0773 14.3893 43.0773 14.888V22.918C43.0773 24.678 42.7033 26.0053 41.9553 26.9C41.222 27.78 40.0927 28.22 38.5673 28.22C36.7927 28.22 35.3627 27.736 34.2773 26.768C33.192 25.8 32.6493 24.4067 32.6493 22.588V14.888C32.6493 14.3893 32.6273 14.096 32.5833 14.008C32.5393 13.9053 32.4 13.8393 32.1653 13.81L30.9553 13.656V13.04H36.9833V13.656L35.7733 13.81C35.5387 13.8393 35.3993 13.9053 35.3553 14.008C35.3113 14.096 35.2893 14.3893 35.2893 14.888V22.742C35.2893 24.3847 35.59 25.5727 36.1913 26.306C36.7927 27.0393 37.6507 27.406 38.7653 27.406C39.8507 27.406 40.694 27.0613 41.2953 26.372C41.8967 25.668 42.1973 24.5313 42.1973 22.962V14.888C42.1973 14.3893 42.1753 14.096 42.1313 14.008C42.0873 13.9053 41.948 13.8393 41.7133 13.81L40.5033 13.656ZM51.4504 27.45C52.3304 27.45 53.0564 27.2447 53.6284 26.834C54.2151 26.4087 54.5084 25.7487 54.5084 24.854C54.5084 24.194 54.3104 23.644 53.9144 23.204C53.5331 22.764 52.8437 22.3973 51.8464 22.104L49.8004 21.488C48.7737 21.18 47.9817 20.652 47.4244 19.904C46.8817 19.1413 46.6104 18.1953 46.6104 17.066C46.6104 16.318 46.7791 15.6213 47.1164 14.976C47.4684 14.3307 47.9964 13.81 48.7004 13.414C49.4191 13.018 50.3211 12.82 51.4064 12.82C52.5944 12.82 53.5551 13.04 54.2884 13.48C55.0217 13.9053 55.5351 14.4627 55.8284 15.152C56.1217 15.8413 56.1951 16.582 56.0484 17.374L53.5184 17.836C53.7531 16.472 53.6504 15.4233 53.2104 14.69C52.7851 13.9567 52.0884 13.59 51.1204 13.59C50.3724 13.59 49.7711 13.81 49.3164 14.25C48.8764 14.69 48.6564 15.3207 48.6564 16.142C48.6564 16.8167 48.8471 17.4107 49.2284 17.924C49.6244 18.4373 50.2697 18.8333 51.1644 19.112L53.2104 19.728C54.3251 20.0507 55.1611 20.542 55.7184 21.202C56.2757 21.8473 56.5544 22.7493 56.5544 23.908C56.5544 24.7293 56.3637 25.47 55.9824 26.13C55.6157 26.7753 55.0511 27.2887 54.2884 27.67C53.5404 28.0367 52.6017 28.22 51.4724 28.22C50.6511 28.22 49.8737 28.1027 49.1404 27.868C48.4071 27.6187 47.7911 27.2153 47.2924 26.658C46.8084 26.1007 46.5004 25.3453 46.3684 24.392L47.8424 23.864C47.9157 24.8027 48.1211 25.536 48.4584 26.064C48.8104 26.5773 49.2431 26.9367 49.7564 27.142C50.2844 27.3473 50.8491 27.45 51.4504 27.45Z" fill="white"/>
</g>
<defs>
<filter id="filter0_f_167_2788" x="0" y="0" width="74" height="40" filterUnits="userSpaceOnUse" color-interpolation-filters="sRGB">
<feFlood flood-opacity="0" result="BackgroundImageFix"/>
<feBlend mode="normal" in="SourceGraphic" in2="BackgroundImageFix" result="shape"/>
<feGaussianBlur stdDeviation="1" result="effect1_foregroundBlur_167_2788"/>
</filter>
<filter id="filter1_f_167_2788" x="16.1921" y="11.8198" width="41.3623" height="17.4004" filterUnits="userSpaceOnUse" color-interpolation-filters="sRGB">
<feFlood flood-opacity="0" result="BackgroundImageFix"/>
<feBlend mode="normal" in="SourceGraphic" in2="BackgroundImageFix" result="shape"/>
<feGaussianBlur stdDeviation="0.5" result="effect1_foregroundBlur_167_2788"/>
</filter>
</defs>
</svg>
